<?xml version="1.0" encoding="utf-8"?>
<?xml-stylesheet type="text/xsl" href="rss1.xsl"?>
<rss version="2.0" xmlns:atom="http://www.w3.org/2005/Atom" xmlns:content="http://purl.org/rss/1.0/modules/content/" xmlns:dc="http://purl.org/dc/elements/1.1/" xmlns:media="http://search.yahoo.com/mrss/">
<channel>
 <title>Getty</title>
 <link>http://www.gettyimg.com/</link>
 <atom:link href="http://www.gettyimg.com/" rel="self" type="application/rss+xml" />

 
                <item>
                <title><![CDATA[【Singles (lossless)】FLAC - DEMISER – Hell Is Full of Fire. 2024, FLAC, Hi-Res]]></title>
                <link><![CDATA[https://sharemania.us/threads/demiser-%E2%80%93-hell-is-full-of-fire-2024-flac-hi-res.251095/]]></link>
                <description><![CDATA[<article>
<blockquote class="messageText SelectQuoteContainer ugc baseHtml">
<img src="https://lossless.ucoz.club/_ld/4/16882870.jpg" class="bbCodeImage LbImage" alt="[​IMG]" data-url="https://lossless.ucoz.club/_ld/4/16882870.jpg" style=""> <br>
<br>
Listen to and free download - <a href="https://lossless.ucoz.club/load/id4/demiser_hell_is_full_of_fire_2024_flac_hi_res/4-1-0-426" target="_blank" class="externalLink" rel="nofollow">https://lossless.ucoz.club/load/id4/demiser_hell_is_full_of_fire_2024_flac_hi_res/4-1-0-426</a>
<div class="messageTextEndMarker">&nbsp;</div>
</blockquote>
</article>]]></description>
                <author><![CDATA[igorsm]]></author>
                </item>

                
                <item>
                <title><![CDATA[【HD Live Performances】HDTV - AURORA - Live At Nidarosdomen (2017) 1080p HDTV H264 MPEG-4 AAC 2.0 Stereo 48000 Hz]]></title>
                <link><![CDATA[https://sharemania.us/threads/aurora-live-at-nidarosdomen-2017-1080p-hdtv-h264-mpeg-4-aac-2-0-stereo-48000-hz.251096/]]></link>
                <description><![CDATA[<article>
<blockquote class="messageText SelectQuoteContainer ugc baseHtml">
<img src="https://ia800601.us.archive.org/8/items/aurora-live-at-nidarosdomen-2017-1080-p-hdtv-h-264-mpeg-4-aac-2.0-stereo-48000-h/AURORA%20Live%20at%20Nidarosdomen%202017%201080P%20HDTV%20H264%20MPEG-4%20AAC%202.0%20Stereo%2048000Hz.mkv_thumbs_%5B2024.07.27_04.59.06%5D.jpg" class="bbCodeImage LbImage" alt="[​IMG]" data-url="https://ia800601.us.archive.org/8/items/aurora-live-at-nidarosdomen-2017-1080-p-hdtv-h-264-mpeg-4-aac-2.0-stereo-48000-h/AURORA%20Live%20at%20Nidarosdomen%202017%201080P%20HDTV%20H264%20MPEG-4%20AAC%202.0%20Stereo%2048000Hz.mkv_thumbs_%5B2024.07.27_04.59.06%5D.jpg" style=""> <br>
<div class="ToggleTriggerAnchor bbCodeSpoilerContainer">
<button type="button" class="button bbCodeSpoilerButton ToggleTrigger Tooltip JsOnly" data-target="> .SpoilerTarget"><span>Spoiler: <span class="SpoilerTitle">MEDIA INFO</span></span></button>
<div class="SpoilerTarget bbCodeSpoilerText">General<br>
Complete name : C:\Users\Olobersykes\Downloads\AURORA - Live at Nidarosdomen 2017 1080p\AURORA Live at Nidarosdomen 2017 1080P HDTV H264 MPEG-4 AAC 2.0 Stereo 48000Hz.mkv<br>
Format : Matroska<br>
Format version : Version 4 / Version 2<br>
File size : 3.04 GiB<br>
Duration : 58 min 38 s<br>
Overall bit rate : 7 414 kb/s<br>
Encoded date : UTC 2023-12-29 09:55:43<br>
Writing application : mkvmerge v63.0.0 ('Everything') 64-bit<br>
Writing library : libebml v1.4.2 + libmatroska v1.6.4<br>
<br>
Video<br>
ID : 1<br>
Format : AVC<br>
Format/Info : Advanced Video Codec<br>
Format profile : High@L4<br>
Format settings, CABAC : Yes<br>
Format settings, RefFrames : 4 frames<br>
Codec ID : V_MPEG4/ISO/AVC<br>
Duration : 58 min 38 s<br>
Bit rate : 7 090 kb/s<br>
Width : 1 920 pixels<br>
Height : 1 080 pixels<br>
Display aspect ratio : 16:9<br>
Frame rate mode : Constant<br>
Frame rate : 25.000 FPS<br>
Color space : YUV<br>
Chroma subsampling : 4:2:0<br>
Bit depth : 8 bits<br>
Scan type : Progressive<br>
Bits/(Pixel*Frame) : 0.137<br>
Stream size : 2.90 GiB (96%)<br>
Writing library : x264 core 148 r2708 86b7198<br>
Default : Yes<br>
Forced : No<br>
Color range : Limited<br>
Color primaries : BT.709<br>
Transfer characteristics : BT.709<br>
Matrix coefficients : BT.709<br>
<br>
Audio<br>
ID : 2<br>
Format : AAC<br>
Format/Info : Advanced Audio Codec<br>
Format profile : LC<br>
Codec ID : A_AAC<br>
Duration : 58 min 38 s<br>
Bit rate : 322 kb/s<br>
Channel(s) : 2 channels<br>
Channel positions : Front: L R<br>
Sampling rate : 48.0 kHz<br>
Frame rate : 46.875 FPS (1024 SPF)<br>
Compression mode : Lossy<br>
Delay relative to video : -21 ms<br>
Stream size : 135 MiB (4%)<br>
Default : Yes<br>
Forced : No</div>
</div><br>
<b><span style="color: #ff0000">DOWNLOAD:</span></b><br>
<div class="bbCodeBlock bbCodeVfcHH HiddenContent">
<div class="attribution type">Hidden Content:</div>
<blockquote>You must reply before you can see the hidden data contained here.</blockquote>
</div>
<div class="messageTextEndMarker">&nbsp;</div>
</blockquote>
</article>]]></description>
                <author><![CDATA[olobersykes99]]></author>
                </item>

                </channel></rss>